<svg width="50" height="50" viewBox="0 0 50 50" fill="none" xmlns="http://www.w3.org/2000/svg">
<rect width="50" height="50" rx="11.1743" fill="#7360F2"/>
<g clip-path="url(#clip0_18_213)">
<path d="M38.285 10.7368C37.4044 9.9242 33.8457 7.34081 25.919 7.30571C25.919 7.30571 16.5714 6.74202 12.0146 10.9218C9.47796 13.4589 8.58563 17.1713 8.49151 21.7739C8.39738 26.3764 8.2756 35.0019 16.59 37.3407H16.598L16.5926 40.9094C16.5926 40.9094 16.5395 42.3543 17.4908 42.6489C18.6416 43.0063 19.317 41.9081 20.4156 40.7244C21.0187 40.0745 21.8514 39.12 22.4789 38.3904C28.1653 38.869 32.5386 37.7751 33.0353 37.6135C34.1834 37.2412 40.6802 36.409 41.7368 27.784C42.8275 18.8943 41.2093 13.2712 38.285 10.7368ZM39.2486 27.1464C38.3568 34.3478 33.0874 34.8003 32.1159 35.112C31.7027 35.2449 27.8616 36.2005 23.0314 35.8852C23.0314 35.8852 19.4324 40.2272 18.3082 41.3561C18.1327 41.5327 17.9264 41.6039 17.7886 41.5688C17.5951 41.5215 17.5419 41.2923 17.544 40.9573C17.5472 40.4787 17.5748 35.0269 17.5748 35.0269C10.5415 33.0742 10.9515 25.733 11.0313 21.8887C11.1111 18.0445 11.8332 14.8953 13.9784 12.7772C17.8328 9.28606 25.7728 9.80774 25.7728 9.80774C32.478 9.83698 35.691 11.8562 36.436 12.5326C38.9099 14.6507 40.1702 19.7191 39.2486 27.1443V27.1464Z" fill="white"/>
<path d="M29.1819 21.5723C29.0947 19.8142 28.2017 18.8909 26.5028 18.8022" stroke="white" stroke-width="0.896582" stroke-linecap="round" stroke-linejoin="round"/>
<path d="M31.4821 22.3439C31.5175 20.706 31.0324 19.3375 30.0266 18.2385C29.0162 17.1356 27.6176 16.5283 25.8229 16.397" stroke="white" stroke-width="0.896582" stroke-linecap="round" stroke-linejoin="round"/>
<path d="M33.8366 23.2652C33.815 20.423 32.9657 18.1846 31.2889 16.5499C29.612 14.9152 27.5265 14.0891 25.0325 14.0718" stroke="white" stroke-width="0.896582" stroke-linecap="round" stroke-linejoin="round"/>
<path d="M26.5918 27.5776C26.5918 27.5776 27.2219 27.6308 27.5612 27.2128L28.2227 26.3806C28.5418 25.9679 29.3118 25.7047 30.0659 26.1248C30.631 26.4471 31.1796 26.7974 31.7096 27.1746C32.21 27.5426 33.2348 28.3977 33.238 28.3977C33.7261 28.8098 33.8389 29.4149 33.5065 30.0531C33.5065 30.0568 33.5039 30.0632 33.5039 30.0664C33.1378 30.701 32.6731 31.2732 32.1271 31.7617C32.1207 31.7649 32.1207 31.7681 32.1148 31.7713C31.6405 32.1676 31.1745 32.3929 30.7168 32.4472C30.6494 32.459 30.5809 32.4632 30.5126 32.4599C30.3108 32.4619 30.11 32.431 29.9181 32.3685L29.9032 32.3467C29.198 32.1478 28.0207 31.65 26.06 30.5684C24.9254 29.9498 23.8452 29.2363 22.831 28.4354C22.3227 28.0342 21.8378 27.6042 21.3787 27.1474L21.3298 27.0985L21.2809 27.0496L21.232 27.0001C21.2155 26.9842 21.1995 26.9677 21.183 26.9512C20.7263 26.4921 20.2963 26.0073 19.8951 25.4989C19.0943 24.4848 18.3808 23.4048 17.7621 22.2705C16.6804 20.3093 16.1827 19.133 15.9838 18.4268L15.962 18.4119C15.8997 18.2199 15.869 18.0191 15.8711 17.8173C15.8674 17.749 15.8715 17.6805 15.8833 17.6131C15.9404 17.1565 16.166 16.6903 16.5603 16.2146C16.5635 16.2087 16.5666 16.2087 16.5698 16.2023C17.0582 15.6564 17.6305 15.1918 18.2652 14.8261C18.2683 14.8261 18.2747 14.8229 18.2784 14.8229C18.9166 14.4905 19.5218 14.6033 19.9334 15.0888C19.9365 15.092 20.79 16.1167 21.1564 16.6171C21.5336 17.1477 21.884 17.6968 22.2062 18.2624C22.6263 19.016 22.3631 19.7876 21.9504 20.1056L21.1182 20.7671C20.6981 21.1064 20.7534 21.7366 20.7534 21.7366C20.7534 21.7366 21.986 26.4019 26.5918 27.5776Z" fill="white"/>
</g>
<defs>
<clipPath id="clip0_18_213">
<rect width="33.608" height="35.4394" fill="white" transform="translate(8.4707 7.28027)"/>
</clipPath>
</defs>
</svg>
