<svg width="50" height="50" viewBox="0 0 50 50" fill="none" xmlns="http://www.w3.org/2000/svg">
<mask id="mask0_18_225" style="mask-type:luminance" maskUnits="userSpaceOnUse" x="0" y="0" width="50" height="50">
<path fill-rule="evenodd" clip-rule="evenodd" d="M11.3667 0.0246582C10.2516 0.0642929 8.81448 0.151531 8.16127 0.283371C7.16417 0.484726 6.22255 0.790012 5.43948 1.18913C4.51943 1.65801 3.69484 2.25625 2.98282 2.96715C2.26917 3.67943 1.66854 4.50479 1.19777 5.42621C0.799767 6.20509 0.494654 7.14098 0.292443 8.13242C0.15795 8.79222 0.0690015 10.2401 0.0286793 11.3623C0.0123278 11.821 0.00393805 12.4146 0.00393805 12.6884L0 37.3077C0 37.5804 0.00830416 38.1742 0.02457 38.6334C0.0642074 39.7484 0.151444 41.1855 0.283369 41.8387C0.484637 42.8357 0.790008 43.7774 1.18904 44.5605C1.65801 45.4807 2.25616 46.3051 2.96707 47.0172C3.67934 47.7307 4.50479 48.3314 5.42612 48.8022C6.20509 49.2001 7.14097 49.5053 8.13234 49.7076C8.79213 49.842 10.2401 49.931 11.3623 49.9712C11.8208 49.9877 12.4145 49.9961 12.6883 49.9961L37.3077 50C37.5804 50 38.1742 49.9918 38.6332 49.9754C39.7483 49.9357 41.1855 49.8486 41.8386 49.7166C42.8357 49.5153 43.7775 49.2099 44.5604 48.811C45.4805 48.342 46.3051 47.7438 47.0171 47.0329C47.7307 46.3206 48.3313 45.4953 48.8021 44.5739C49.2001 43.7949 49.5053 42.8591 49.7075 41.8677C49.842 41.2079 49.9309 39.7599 49.9712 38.6377C49.9877 38.1791 49.996 37.5855 49.996 37.3117L50 12.6923C50 12.4196 49.9917 11.8258 49.9753 11.3667C49.9356 10.2517 49.8485 8.81456 49.7165 8.16136C49.5153 7.16426 49.2099 6.22264 48.8109 5.43957C48.342 4.51943 47.7437 3.69492 47.0329 2.98282C46.3206 2.26935 45.4951 1.66862 44.5738 1.19786C43.7948 0.799858 42.859 0.494656 41.8676 0.292534C41.2078 0.158039 39.7599 0.0690918 38.6377 0.0288544C38.179 0.0123329 37.5854 0.00402832 37.3116 0.00402832L12.6923 8.7738e-05C12.4195 8.7738e-05 11.8257 0.0083046 11.3667 0.0246582Z" fill="white"/>
</mask>
<g mask="url(#mask0_18_225)">
<path d="M11.3667 0.0246582C10.2516 0.0642929 8.81448 0.151531 8.16127 0.283371C7.16417 0.484726 6.22255 0.790012 5.43948 1.18913C4.51943 1.65801 3.69484 2.25625 2.98282 2.96715C2.26917 3.67943 1.66854 4.50479 1.19777 5.42621C0.799767 6.20509 0.494654 7.14098 0.292443 8.13242C0.15795 8.79222 0.0690015 10.2401 0.0286793 11.3623C0.0123278 11.821 0.00393805 12.4146 0.00393805 12.6884L0 37.3077C0 37.5804 0.00830416 38.1742 0.02457 38.6334C0.0642074 39.7484 0.151444 41.1855 0.283369 41.8387C0.484637 42.8357 0.790008 43.7774 1.18904 44.5605C1.65801 45.4807 2.25616 46.3051 2.96707 47.0172C3.67934 47.7307 4.50479 48.3314 5.42612 48.8022C6.20509 49.2001 7.14097 49.5053 8.13234 49.7076C8.79213 49.842 10.2401 49.931 11.3623 49.9712C11.8208 49.9877 12.4145 49.9961 12.6883 49.9961L37.3077 50C37.5804 50 38.1742 49.9918 38.6332 49.9754C39.7483 49.9357 41.1855 49.8486 41.8386 49.7166C42.8357 49.5153 43.7775 49.2099 44.5604 48.811C45.4805 48.342 46.3051 47.7438 47.0171 47.0329C47.7307 46.3206 48.3313 45.4953 48.8021 44.5739C49.2001 43.7949 49.5053 42.8591 49.7075 41.8677C49.842 41.2079 49.9309 39.7599 49.9712 38.6377C49.9877 38.1791 49.996 37.5855 49.996 37.3117L50 12.6923C50 12.4196 49.9917 11.8258 49.9753 11.3667C49.9356 10.2517 49.8485 8.81456 49.7165 8.16136C49.5153 7.16426 49.2099 6.22264 48.8109 5.43957C48.342 4.51943 47.7437 3.69492 47.0329 2.98282C46.3206 2.26935 45.4951 1.66862 44.5738 1.19786C43.7948 0.799858 42.859 0.494656 41.8676 0.292534C41.2078 0.158039 39.7599 0.0690918 38.6377 0.0288544C38.179 0.0123329 37.5854 0.00402832 37.3116 0.00402832L12.6923 8.7738e-05C12.4195 8.7738e-05 11.8257 0.0083046 11.3667 0.0246582Z" fill="url(#paint0_linear_18_225)"/>
<path fill-rule="evenodd" clip-rule="evenodd" d="M33.6674 28.291C33.2221 28.0681 31.0326 26.9911 30.6243 26.8425C30.2161 26.694 29.9193 26.6197 29.6224 27.0654C29.3255 27.5111 28.4721 28.5138 28.2123 28.811C27.9525 29.108 27.6928 29.1453 27.2475 28.9223C26.8021 28.6996 25.3672 28.2294 23.6662 26.7127C22.3424 25.5323 21.4486 24.0743 21.1888 23.6286C20.929 23.1829 21.1611 22.942 21.3841 22.72C21.5844 22.5206 21.8294 22.2001 22.052 21.9401C22.2747 21.6801 22.3489 21.4944 22.4974 21.1973C22.6458 20.9002 22.5716 20.6402 22.4602 20.4173C22.3489 20.1945 21.4583 18.0032 21.0872 17.1119C20.7258 16.2438 20.3586 16.3612 20.0852 16.3476C19.8258 16.3347 19.5286 16.332 19.2317 16.332C18.9348 16.332 18.4524 16.4434 18.0441 16.889C17.636 17.3347 16.4855 18.4118 16.4855 20.603C16.4855 22.7943 18.0813 24.9113 18.304 25.2084C18.5266 25.5056 21.4442 30.0023 25.9115 31.9307C26.974 32.3894 27.8036 32.6632 28.4503 32.8685C29.5171 33.2073 30.488 33.1595 31.2553 33.0449C32.1109 32.9171 33.8901 31.9678 34.2612 30.9279C34.6322 29.888 34.6322 28.9966 34.521 28.811C34.4097 28.6253 34.1128 28.5138 33.6674 28.291ZM25.5418 39.3822H25.5358C22.8776 39.3811 20.2704 38.6673 17.996 37.318L17.4551 36.997L11.8484 38.4673L13.3449 33.0026L12.9927 32.4424C11.5098 30.0845 10.7267 27.3593 10.7278 24.5611C10.731 16.396 17.3765 9.75312 25.5477 9.75312C29.5044 9.75466 33.2238 11.2971 36.0207 14.0962C38.8176 16.8954 40.357 20.6162 40.3554 24.5731C40.3521 32.7388 33.7067 39.3822 25.5418 39.3822ZM38.1494 11.9691C34.7844 8.60128 30.3094 6.74569 25.5416 6.7438C15.7179 6.7438 7.7225 14.7361 7.71857 24.5599C7.71728 27.7002 8.53794 30.7655 10.0976 33.4673L7.56909 42.7002L17.0173 40.2226C19.6206 41.6421 22.5515 42.39 25.5345 42.3913H25.5418H25.5419C35.3646 42.3913 43.3607 34.398 43.3647 24.5741C43.3665 19.8133 41.5144 15.3368 38.1494 11.9691Z" fill="white"/>
</g>
<defs>
<linearGradient id="paint0_linear_18_225" x1="-5.36442e-05" y1="50" x2="-5.36442e-05" y2="3.02898e-05" gradientUnits="userSpaceOnUse">
<stop stop-color="#25CF43"/>
<stop offset="1" stop-color="#61FD7D"/>
</linearGradient>
</defs>
</svg>
