<svg width="44" height="44" viewBox="0 0 44 44" fill="none" xmlns="http://www.w3.org/2000/svg">
<path d="M22 43.774C34.0256 43.774 43.7742 34.0253 43.7742 21.9998C43.7742 9.97422 34.0256 0.225586 22 0.225586C9.97447 0.225586 0.22583 9.97422 0.22583 21.9998C0.22583 34.0253 9.97447 43.774 22 43.774Z" fill="url(#paint0_linear_18_222)"/>
<path d="M7.8616 22.9271C10.4192 21.5295 13.2741 20.3629 15.9416 19.1905C20.5308 17.27 25.1382 15.3829 29.7921 13.626C30.6975 13.3266 32.3245 13.0339 32.484 14.3652C32.3966 16.2496 32.0373 18.123 31.7908 19.9964C31.1652 24.1162 30.4421 28.2218 29.737 32.328C29.494 33.6958 27.767 34.4038 26.662 33.5285C24.0063 31.7489 21.3302 29.9865 18.7085 28.1655C17.8497 27.2998 18.6461 26.0565 19.4131 25.4382C21.6003 23.2996 23.92 21.4827 25.993 19.2336C26.5521 17.894 24.8999 19.023 24.355 19.3689C21.3606 21.4161 18.4394 23.5883 15.2824 25.3876C13.6698 26.2683 11.7902 25.5157 10.1784 25.0242C8.73314 24.4306 6.6153 23.8324 7.86145 22.9273L7.8616 22.9271Z" fill="white"/>
<defs>
<linearGradient id="paint0_linear_18_222" x1="15.897" y1="-19.9341" x2="-13.864" y2="28.1838" gradientUnits="userSpaceOnUse">
<stop stop-color="#34B0DF"/>
<stop offset="1" stop-color="#1E88D3"/>
</linearGradient>
</defs>
</svg>
